<?xml version="1.0" encoding="utf-8"?>
<!-- Generator: Adobe Illustrator 19.0.0, SVG Export Plug-In . SVG Version: 6.00 Build 0)  -->
<svg version="1.1" id="Layer_1" xmlns="http://www.w3.org/2000/svg" xmlns:xlink="http://www.w3.org/1999/xlink" x="0px" y="0px"
	 viewBox="0 0 500 500" style="enable-background:new 0 0 500 500;" xml:space="preserve">
<style type="text/css">
	.st0{fill:#0024D0;}
	.st1{fill:#0CC8FC;}
	.st2{fill:#FFFFFF;}
	.st3{fill:#FC0000;}
	.st4{fill:#FF0000;}
</style>
<g id="XMLID_1_">
	<path id="XMLID_3_" class="st0" d="M391.2,209.6c0,76.9-62,139.2-138.5,139.2c-76.5,0-138.5-62.3-138.5-139.2
		c0-76.9,62-139.2,138.5-139.2C329.2,70.4,391.2,132.7,391.2,209.6L391.2,209.6z"/>
	<path id="XMLID_7_" class="st1" d="M249.6,69.8c-27.8,0.3-57,10.3-80.1,27.6c-31.1,23.4-49.9,55.2-55.5,93.9c-0.4,2.8-0.3,5,0.2,5
		c0.5,0,2.6-3,4.6-6.6c9.7-17.2,25.7-31.5,48-42.7c15.4-7.8,30-12.4,51.3-16.3c13.5-2.5,21.4-2.9,52.6-3c38.9-0.2,41.4-0.6,46.9-7
		c5.3-6.1,6.7-18.9,3-26.7c-5-10.6-27.2-19.9-55.9-23.3C259.8,70.1,254.7,69.8,249.6,69.8z M333.4,96.2c-0.7,0,1.2,4.8,4.1,10.6
		c7.4,14.8,10.7,27.5,11.6,45c1.9,35.9-11.8,77.3-40.9,124.1c-13.8,22.1-15.4,27.5-11.2,36.3c2.6,5.4,9.1,10.8,16.2,13.2
		c8.1,2.8,15.9,0.1,27.8-9.5c21.5-17.5,37.5-41.5,45.5-68.3c2.8-9.5,3.6-15.4,4.2-30.9c1.2-34.4-5.5-59.5-23-85.5
		C361.6,122.1,336.2,96.2,333.4,96.2z M138.8,197.8c-8,0.1-16.9,4-21.3,10.6c-4.2,6.1-4.1,19.6,0.3,36.6
		c12.9,50.7,52.6,88.8,105.6,101.2c8.7,2,14.6,2.4,32.1,2c22.1-0.5,33.3-2.7,50.1-9.8l6-2.5l-12.9-0.9c-30.1-2.1-55-14.1-80.9-38.8
		c-18.5-17.7-35.1-40.6-50.5-69.8c-9.2-17.4-12.9-22.6-18.5-26C145.9,198.6,142.4,197.8,138.8,197.8z"/>
	<path id="XMLID_11_" class="st2" d="M249.6,69.8l0-2.3c-28.3,0.4-58,10.4-81.4,28.1c-15.8,11.9-28.5,25.9-37.9,41.9
		c-9.4,16-15.6,33.9-18.5,53.5c-0.2,1.2-0.3,2.4-0.3,3.4c0,0.7,0,1.3,0.2,1.9c0.1,0.3,0.2,0.7,0.4,1.1c0.1,0.2,0.3,0.5,0.7,0.8
		c0.4,0.3,0.9,0.5,1.5,0.5h0c0.6,0,0.9-0.2,1.2-0.3c0.4-0.2,0.6-0.4,0.9-0.6c0.4-0.3,0.7-0.7,1-1.2c1-1.3,2.3-3.4,3.6-5.7
		c9.4-16.7,25.1-30.7,47-41.8c15.2-7.7,29.4-12.2,50.7-16.1c6.7-1.2,11.9-1.9,19.4-2.3c7.5-0.4,17.2-0.6,32.8-0.7
		c9.7-0.1,17.2-0.1,23-0.3c8.7-0.3,13.8-0.7,17.6-1.8c1.9-0.6,3.4-1.3,4.7-2.3c1.3-1,2.3-2.1,3.4-3.3c1.9-2.2,3.3-5,4.2-8.1
		c0.9-3.1,1.4-6.4,1.4-9.7c0-4-0.7-8-2.3-11.4c-1.5-3.1-4.1-5.9-7.5-8.5c-5.2-3.8-12.3-7.2-20.8-9.9c-8.5-2.8-18.5-4.9-29.4-6.2
		c-4.6-0.6-9.4-0.9-14.1-0.9c-0.5,0-0.9,0-1.4,0L249.6,69.8l0,2.3c0.5,0,0.9,0,1.4,0c4.6,0,9.1,0.3,13.6,0.8
		c14.2,1.7,26.7,4.9,36.2,8.8c4.7,2,8.7,4.2,11.8,6.4c3,2.3,5.1,4.6,6.1,6.7c1.2,2.5,1.8,5.9,1.8,9.4c0,2.8-0.4,5.8-1.2,8.4
		c-0.8,2.6-1.9,4.9-3.3,6.4c-1.3,1.5-2.3,2.5-3.6,3.2c-1,0.6-2.2,1-4,1.4c-2.7,0.6-6.6,0.9-12.6,1.2c-6,0.2-14.1,0.3-25,0.4
		c-15.6,0.1-25.4,0.2-33.1,0.7c-7.6,0.4-13.1,1.2-19.9,2.4c-21.5,3.9-36.3,8.6-52,16.5c-22.5,11.4-39,26-49,43.7
		c-1,1.8-2,3.4-2.8,4.5c-0.4,0.6-0.7,1-0.9,1.2l-0.1,0.1l0,0l0,0l0.8,0.9l-0.6-1c-0.1,0.1-0.2,0.1-0.2,0.1l0.8,0.9l-0.6-1l1,1.8
		l0-2.1c-0.6,0-0.9,0.2-1,0.3l1,1.8l0-2.1h0v2.2l1.3-1.8c-0.3-0.2-0.8-0.4-1.3-0.4v2.2l1.3-1.8l-1.2,1.6l1.7-1.1
		c-0.1-0.1-0.2-0.3-0.5-0.5l-1.2,1.6l1.7-1.1l-1.1,0.8l1.3-0.4c0,0,0-0.1-0.2-0.4l-1.1,0.8l1.3-0.4l-0.3,0.1l0.3-0.1l0,0l-0.3,0.1
		l0.3-0.1l0-0.1c0-0.1,0-0.5,0-0.9c0-0.7,0.1-1.7,0.2-2.7c2.8-19,8.7-36.4,17.9-51.8c9.1-15.4,21.4-29,36.7-40.6
		c22.6-17.1,51.4-26.8,78.7-27.2L249.6,69.8z M333.4,96.2v-2.3c-0.4,0-0.9,0.1-1.3,0.4c-0.3,0.2-0.6,0.5-0.7,0.7
		c-0.2,0.4-0.3,0.7-0.4,0.9c0,0.2-0.1,0.4-0.1,0.6c0,0.4,0.1,0.7,0.1,1.1c0.1,0.6,0.3,1.2,0.6,1.9c0.8,2.1,2.1,5.1,3.8,8.5
		c7.3,14.6,10.5,26.8,11.4,44c0.1,2.2,0.2,4.3,0.2,6.5c0,33.7-13.5,72.5-40.7,116.2c-4.8,7.7-8.1,13.4-10.3,18
		c-1.1,2.3-1.9,4.4-2.5,6.3c-0.5,1.9-0.8,3.7-0.8,5.5c0,3.1,0.9,5.9,2.3,8.8c1.5,3.1,4,6,7,8.5c3,2.5,6.7,4.6,10.5,5.9
		c2.2,0.8,4.5,1.2,6.8,1.2c3.5,0,7.1-1,10.9-2.8c3.8-1.9,7.8-4.6,12.3-8.3c21.9-17.9,38.1-42.2,46.3-69.5c1.4-4.8,2.4-8.8,3-13.6
		c0.6-4.7,1-10.2,1.3-17.9c0.1-2.6,0.1-5.2,0.1-7.7c0-15.5-1.8-29.2-5.6-42.1c-3.8-12.9-9.7-24.9-17.9-37.1
		c-1.6-2.4-4.4-5.8-7.7-9.5c-5-5.6-11.2-12.1-16.4-17.1c-2.6-2.5-5-4.7-6.9-6.3c-1-0.8-1.8-1.5-2.5-2c-0.4-0.2-0.7-0.5-1.1-0.6
		c-0.2-0.1-0.4-0.2-0.6-0.3c-0.2-0.1-0.5-0.1-0.9-0.1V96.2v2.3v-1.4l-0.5,1.3c0,0,0.1,0.1,0.5,0.1v-1.4l-0.5,1.3l0-0.1l0,0.1l0,0
		l0-0.1l0,0.1c0,0,0.3,0.2,0.6,0.4c0.6,0.4,1.6,1.2,2.8,2.2c4,3.5,10.3,9.6,16.1,15.8c2.9,3.1,5.7,6.1,8,8.9
		c2.3,2.7,4.3,5.1,5.4,6.8c8,11.8,13.6,23.4,17.3,35.8c3.7,12.4,5.4,25.6,5.4,40.7c0,2.5,0,5-0.1,7.5c-0.3,7.7-0.6,13-1.2,17.4
		c-0.6,4.5-1.5,8.2-2.9,12.8c-7.9,26.4-23.6,50-44.8,67.2c-4.4,3.6-8.1,6.1-11.4,7.7c-3.3,1.6-6.1,2.3-8.8,2.3
		c-1.8,0-3.5-0.3-5.3-0.9c-3.3-1.1-6.4-3-9.1-5.1c-2.6-2.1-4.7-4.6-5.8-6.9c-1.2-2.6-1.8-4.6-1.8-6.8c0-1.2,0.2-2.6,0.6-4.2
		c1.3-4.8,5.1-11.7,12.3-23.1c27.5-44.1,41.4-83.7,41.4-118.6c0-2.3-0.1-4.5-0.2-6.8c-0.9-17.7-4.3-30.9-11.9-45.9
		c-1.2-2.5-2.3-4.7-3-6.5c-0.4-0.9-0.6-1.6-0.8-2.2c-0.1-0.3-0.1-0.5-0.2-0.6l0-0.1l0,0l-0.8,0.1h0.8l0-0.1l-0.8,0.1h0.8h-1.9
		l1.7,0.9c0.2-0.5,0.2-0.7,0.2-0.9h-1.9l1.7,0.9l-2-1l1.2,1.8c0.4-0.3,0.6-0.6,0.8-0.8l-2-1l1.2,1.8l-1.2-1.9l0,2.2
		c0.4,0,0.8-0.1,1.2-0.4l-1.2-1.9l0,2.2V96.2z M138.8,197.8l0-2.3c-4.4,0-8.9,1.1-13,3.1c-4.1,2-7.7,4.8-10.2,8.5
		c-1.2,1.8-2.1,4-2.6,6.6c-0.6,2.5-0.8,5.4-0.8,8.6c0,6.6,1.1,14.5,3.4,23.3c13.1,51.6,53.6,90.3,107.4,102.9
		c3.4,0.8,6.5,1.4,9.9,1.7c3.4,0.4,7.3,0.5,12.3,0.5c3,0,6.4-0.1,10.4-0.1c11.1-0.3,19.6-0.9,27.4-2.5c7.8-1.5,15-3.9,23.5-7.5l0,0
		l6-2.5c1-0.4,1.6-1.5,1.4-2.5c-0.2-1.1-1.1-1.9-2.1-1.9l-12.9-0.9h0c-14.8-1-28.2-4.5-41.2-10.7c-13-6.2-25.5-15.2-38.3-27.5
		c-18.3-17.5-34.7-40.2-50-69.2c-4.6-8.7-7.9-14.4-10.7-18.5c-1.4-2-2.8-3.7-4.2-5c-1.4-1.4-2.8-2.4-4.3-3.4c-3.2-2-7.1-2.8-11-2.8
		l-0.2,0h0L138.8,197.8l0,2.3l0.1,0c3.2,0,6.2,0.7,8.6,2.2c1.3,0.8,2.4,1.6,3.5,2.7c1.7,1.7,3.5,4,5.8,7.5c2.2,3.5,4.9,8.3,8.3,14.8
		c15.5,29.3,32.2,52.4,50.9,70.4c13.1,12.5,26,21.8,39.5,28.3c13.5,6.5,27.6,10.1,42.9,11.1l0,0l12.9,0.9l0.2-2.3l-0.9-2.2l-6,2.5
		l0,0c-8.3,3.5-15.1,5.8-22.5,7.2c-7.5,1.5-15.7,2.1-26.7,2.4c-4,0.1-7.4,0.1-10.3,0.1c-4.9,0-8.6-0.1-11.8-0.5
		c-3.2-0.3-6-0.8-9.3-1.6c-52.2-12.2-91.2-49.6-103.9-99.5c-2.2-8.5-3.2-16.1-3.2-22.2c0-2.9,0.2-5.5,0.7-7.6c0.5-2.1,1.1-3.8,1.9-5
		c1.9-2.9,4.9-5.3,8.4-6.9c3.5-1.7,7.4-2.6,11-2.6h0L138.8,197.8z"/>
	<path id="XMLID_14_" class="st2" d="M286.6,364.2c-18.5,0-22.2,0.9-28.5,7.1c-2.6,2.5-4,4.1-4.1,5v0v0l0,0.5h0v1.1l-1.3,23.7
		c-0.2,7-0.1,14,0.3,15.6c1.1,4.3,7.4,11.2,12,13.2c2.7,1.2,10,1.8,21.5,1.8c15.5,0,17.9-0.3,22.7-3c8.4-4.7,11.4-12,11.4-27.6
		c0-6.5-2.1-24-2.9-25.5c0-0.9-0.9-2.3-2.7-4.6C310.2,365.6,305,364.2,286.6,364.2L286.6,364.2z M254.1,376.8l0.1,0.1h-0.1V376.8z"
		/>
	<path id="XMLID_15_" class="st3" d="M213.3,364.3c-19.5,0-25.3,1.8-30.1,9.7c-2.4,3.9-2.8,6.7-2.9,23.1
		c-0.2,23.1,1.9,28.8,12.3,33.3c7.1,3.1,36.2,2.7,43.5-0.6c9.7-4.4,11.1-8.2,11.1-31.3c0-18-0.3-20.3-2.9-24.5
		C239.5,366.3,233.2,364.3,213.3,364.3z"/>
	<path id="XMLID_16_" class="st3" d="M137.7,364.3c-14.6-0.2-18.3,0.9-23.3,5.3c-6.6,5.8-7.9,11.5-7.4,31.5
		c0.4,15.7,0.8,17.7,3.7,21.8c1.8,2.5,5.7,5.7,8.7,7.1c4.7,2.2,8.1,2.5,23.8,2.2c19.9-0.4,22.2-1.1,28.4-9.6
		c2.5-3.4,2.8-5.6,2.8-24.2s-0.3-20.8-2.8-24.2c-6.2-8.2-8.7-9.2-26.9-9.6C142,364.4,139.7,364.4,137.7,364.3z"/>
	<path id="XMLID_17_" class="st3" d="M358.8,364.9c-19.3,0-20.5,0.2-24.8,3.2c-7.5,5.3-9.5,11.7-9.5,30.3c0,19.9,2.4,26.1,12,31.1
		c5.5,2.8,7.4,3,24.3,2.7c20.2-0.4,22.7-1.3,28.8-10.4c2.8-4.1,3-5.9,3-23.4c0-17.5-0.2-19.3-3-23.4
		C383.3,365.6,381.4,364.9,358.8,364.9L358.8,364.9z"/>
	<polygon id="XMLID_18_" class="st2" points="114.8,377.6 124.7,377.6 134.6,377.6 144.7,393.3 154.8,409 154.9,393.3 154.9,377.6 
		160.9,377.6 166.9,377.6 166.9,398.3 166.9,419 157.2,419 147.5,419 137.5,403.3 127.5,387.6 127.1,403.3 126.8,419 120.8,419 
		114.8,419 114.8,398.3 114.8,377.6 	"/>
	<polygon id="XMLID_19_" class="st2" points="191,377.6 213.7,377.6 236.4,377.6 236.4,382.3 236.4,387 219.7,387 203,387 
		203,390.3 203,393.6 219,393.6 235,393.6 235,397.7 235,401.7 219,401.7 203,401.7 203,405.7 203,409.7 219.7,409.7 236.4,409.7 
		236.4,414.3 236.4,419 213.7,419 191,419 191,398.3 	"/>
	<path id="XMLID_20_" class="st2" d="M360.1,377.6H378v4.8v4.7l-14.7-0.3c-10-0.2-15.2,0.2-16.3,1.3c-3.3,3.3,1.4,4.8,17.2,5.7
		c18,1,19.2,1.7,19.1,12.6c0,7.5-0.7,9-4.9,11.2c-1.8,1-10.3,1.5-22.4,1.5h-19.5v-4.6v-4.6l17.7-0.4c16.7-0.4,17.7-0.5,17.7-3
		c0-2.5-1.4-2.8-16.5-4c-18.9-1.5-20.2-2.3-20.2-12.8c0-5.2,0.6-6.8,3.5-9.1C341.9,377.9,344.1,377.6,360.1,377.6z"/>
	<path id="XMLID_23_" class="st4" d="M286.6,364.3c-18.5,0-22.2,0.9-28.5,7.1c-5.4,5.2-5.4,6.3-0.4,6.3c3.9,0,4,0.3,8.9,15.7l5,15.7
		l3.4-10.7l3.5-10.7l7.6-0.4l7.6-0.4l2.9,10.1c1.6,5.5,3.4,10.1,3.9,10.1c0.5,0,2.9-6.6,5.4-14.7c4.3-14.2,4.6-14.7,8.2-14.7
		c4.5,0,4.7-1.1,0.8-6C310.2,365.7,305,364.3,286.6,364.3z M253.1,389.1l-0.4,12.7c-0.2,7-0.1,14,0.3,15.6c1.1,4.3,7.4,11.2,12,13.2
		c2.7,1.2,10,1.8,21.5,1.8c15.5,0,17.9-0.3,22.7-3c8.4-4.7,11.4-12,11.4-27.6c0-7-0.5-12.1-1.1-11.4c-0.6,0.7-3.2,7.4-5.7,14.9
		l-4.6,13.7h-8.1H293l-3.2-12c-1.8-6.6-3.6-11.6-4-11.2s-2,5.6-3.5,11.6l-2.7,10.9l-8.2,0.4l-8.1,0.4l-5.1-15.1L253.1,389.1z"/>
</g>
</svg>
